<?xml version="1.0" encoding="UTF-8" standalone="no"?>
<!-- Uploaded to: SVG Repo, www.svgrepo.com, Transformed by: SVG Repo Mixer Tools -->

<svg
   width="800px"
   height="800px"
   viewBox="0 0 20 20"
   version="1.1"
   fill="#000000"
   id="svg16"
   sodipodi:docname="logo.svg"
   inkscape:version="1.2.2 (b0a8486541, 2022-12-01)"
   xmlns:inkscape="http://www.inkscape.org/namespaces/inkscape"
   xmlns:sodipodi="http://sodipodi.sourceforge.net/DTD/sodipodi-0.dtd"
   xmlns="http://www.w3.org/2000/svg"
   xmlns:svg="http://www.w3.org/2000/svg">
  <defs
     id="defs20" />
  <sodipodi:namedview
     id="namedview18"
     pagecolor="#ffffff"
     bordercolor="#666666"
     borderopacity="1.0"
     inkscape:showpageshadow="2"
     inkscape:pageopacity="0.0"
     inkscape:pagecheckerboard="0"
     inkscape:deskcolor="#d1d1d1"
     showgrid="false"
     inkscape:zoom="0.33937499"
     inkscape:cx="282.87293"
     inkscape:cy="284.34623"
     inkscape:window-width="1366"
     inkscape:window-height="714"
     inkscape:window-x="0"
     inkscape:window-y="22"
     inkscape:window-maximized="1"
     inkscape:current-layer="svg16" />
  <g
     id="SVGRepo_bgCarrier"
     stroke-width="0" />
  <g
     id="SVGRepo_tracerCarrier"
     stroke-linecap="round"
     stroke-linejoin="round" />
  <path
     id="rect388"
     style="fill:#006fee;fill-rule:evenodd;stroke-width:0.226625;fill-opacity:1"
     d="M 9.857373 0.4003418 C 8.2382739 0.40034177 6.6191327 0.69881813 5.178125 1.2957031 C 3.3456856 2.0547248 1.7296757 3.670734 0.9706543 5.5031738 C -0.22311532 8.3851887 0.9706543 14.861621 0.9706543 14.861621 C 0.9706543 16.156401 1.0311523 19.295703 1.0311523 19.295703 C 1.0311523 19.295703 4.141968 19.069092 5.178125 19.069092 C 5.178125 19.069092 11.654557 20.262862 14.536572 19.069092 C 16.369012 18.310071 17.767648 17.218849 18.744043 14.861621 C 19.720439 12.504393 19.937813 8.3851886 18.744043 5.5031738 C 17.985022 3.6707338 16.369012 2.0547248 14.536572 1.2957031 C 13.095565 0.69881823 11.476472 0.40034182 9.857373 0.4003418 z M 5.9790039 6.3540039 L 14.020996 6.3540039 A 1.3403376 1.3403376 0 0 1 15.361328 7.6943359 A 1.3403376 1.3403376 0 0 1 14.020996 9.034668 L 5.9790039 9.034668 A 1.3403376 1.3403376 0 0 1 4.6386719 7.6943359 A 1.3403376 1.3403376 0 0 1 5.9790039 6.3540039 z M 5.9790039 11.465332 L 10 11.465332 A 1.3403376 1.3403376 0 0 1 11.340332 12.805664 A 1.3403376 1.3403376 0 0 1 10 14.145996 L 5.9790039 14.145996 A 1.3403376 1.3403376 0 0 1 4.6386719 12.805664 A 1.3403376 1.3403376 0 0 1 5.9790039 11.465332 z " />
</svg>
